{
	"asset":{
		"generator":"Khronos glTF Blender I/O v4.2.57",
		"version":"2.0"
	},
	"extensionsUsed":[
		"KHR_materials_specular",
		"KHR_materials_ior"
	],
	"scene":0,
	"scenes":[
		{
			"name":"Scene",
			"nodes":[
				0,
				1,
				2,
				3,
				4,
				5,
				6
			]
		}
	],
	"nodes":[
		{
			"mesh":0,
			"name":"Curves.3967",
			"rotation":[
				0.70710688829422,
				0,
				0,
				0.7071066498756409
			],
			"scale":[
				0.009999999776482582,
				0.009999998845160007,
				0.009999998845160007
			]
		},
		{
			"name":"Dante_no_coat",
			"rotation":[
				0.70710688829422,
				0,
				0,
				0.7071066498756409
			],
			"scale":[
				0.009999999776482582,
				0.009999998845160007,
				0.009999998845160007
			]
		},
		{
			"mesh":1,
			"name":"Dante_no_coat.001",
			"rotation":[
				0.70710688829422,
				0,
				0,
				0.7071066498756409
			],
			"scale":[
				0.009999999776482582,
				0.009999998845160007,
				0.009999998845160007
			]
		},
		{
			"name":"Fur.3965",
			"rotation":[
				0.70710688829422,
				0,
				0,
				0.7071066498756409
			],
			"scale":[
				0.009999999776482582,
				0.009999998845160007,
				0.009999998845160007
			]
		},
		{
			"name":"model2.002",
			"rotation":[
				0.70710688829422,
				0,
				0,
				0.7071066498756409
			],
			"scale":[
				0.009999999776482582,
				0.009999998845160007,
				0.009999998845160007
			]
		},
		{
			"mesh":2,
			"name":"model2.003",
			"rotation":[
				0.70710688829422,
				0,
				0,
				0.7071066498756409
			],
			"scale":[
				0.009999999776482582,
				0.009999998845160007,
				0.009999998845160007
			]
		},
		{
			"mesh":3,
			"name":"Sword",
			"rotation":[
				-0.5417212843894958,
				-0.5603015422821045,
				-0.3935982882976532,
				0.487525075674057
			],
			"scale":[
				0.009999996982514858,
				0.009999996982514858,
				0.009999998845160007
			],
			"translation":[
				1.5297551155090332,
				-2.0728864669799805,
				0.5745758414268494
			]
		}
	],
	"animations":[
		{
			"channels":[
				{
					"sampler":0,
					"target":{
						"node":1,
						"path":"translation"
					}
				},
				{
					"sampler":1,
					"target":{
						"node":1,
						"path":"rotation"
					}
				},
				{
					"sampler":2,
					"target":{
						"node":1,
						"path":"scale"
					}
				}
			],
			"name":"Dante_no_coatAction",
			"samplers":[
				{
					"input":52,
					"interpolation":"STEP",
					"output":53
				},
				{
					"input":52,
					"interpolation":"STEP",
					"output":54
				},
				{
					"input":52,
					"interpolation":"STEP",
					"output":55
				}
			]
		},
		{
			"channels":[
				{
					"sampler":0,
					"target":{
						"node":3,
						"path":"translation"
					}
				},
				{
					"sampler":1,
					"target":{
						"node":3,
						"path":"rotation"
					}
				},
				{
					"sampler":2,
					"target":{
						"node":3,
						"path":"scale"
					}
				}
			],
			"name":"Fur.3965Action",
			"samplers":[
				{
					"input":56,
					"interpolation":"LINEAR",
					"output":57
				},
				{
					"input":56,
					"interpolation":"LINEAR",
					"output":58
				},
				{
					"input":56,
					"interpolation":"LINEAR",
					"output":59
				}
			]
		},
		{
			"channels":[
				{
					"sampler":0,
					"target":{
						"node":4,
						"path":"translation"
					}
				},
				{
					"sampler":1,
					"target":{
						"node":4,
						"path":"rotation"
					}
				},
				{
					"sampler":2,
					"target":{
						"node":4,
						"path":"scale"
					}
				}
			],
			"name":"model2.002Action",
			"samplers":[
				{
					"input":52,
					"interpolation":"STEP",
					"output":60
				},
				{
					"input":52,
					"interpolation":"STEP",
					"output":61
				},
				{
					"input":52,
					"interpolation":"STEP",
					"output":62
				}
			]
		},
		{
			"channels":[
				{
					"sampler":0,
					"target":{
						"node":5,
						"path":"weights"
					}
				}
			],
			"name":"KeyAction",
			"samplers":[
				{
					"input":63,
					"interpolation":"LINEAR",
					"output":64
				}
			]
		}
	],
	"materials":[
		{
			"alphaMode":"BLEND",
			"doubleSided":true,
			"extensions":{
				"KHR_materials_specular":{
					"specularFactor":0
				}
			},
			"name":"Material.002",
			"pbrMetallicRoughness":{
				"baseColorFactor":[
					0.009397092275321484,
					0.009397092275321484,
					0.009397092275321484,
					1
				],
				"baseColorTexture":{
					"index":0
				},
				"metallicFactor":0
			}
		},
		{
			"doubleSided":true,
			"extensions":{
				"KHR_materials_specular":{
					"specularFactor":0
				}
			},
			"name":"Head",
			"pbrMetallicRoughness":{
				"baseColorTexture":{
					"index":1
				},
				"metallicFactor":0,
				"roughnessFactor":0.5
			}
		},
		{
			"alphaMode":"BLEND",
			"doubleSided":true,
			"extensions":{
				"KHR_materials_specular":{
					"specularFactor":0
				}
			},
			"name":"Hair",
			"pbrMetallicRoughness":{
				"baseColorTexture":{
					"index":2
				},
				"metallicFactor":0,
				"roughnessFactor":0.5
			}
		},
		{
			"alphaMode":"BLEND",
			"doubleSided":true,
			"extensions":{
				"KHR_materials_specular":{
					"specularFactor":0
				}
			},
			"name":"Hand1",
			"pbrMetallicRoughness":{
				"baseColorTexture":{
					"index":3
				},
				"metallicFactor":0,
				"roughnessFactor":0.5
			}
		},
		{
			"alphaMode":"BLEND",
			"doubleSided":true,
			"extensions":{
				"KHR_materials_specular":{
					"specularFactor":0
				}
			},
			"name":"Body1",
			"pbrMetallicRoughness":{
				"baseColorTexture":{
					"index":4
				},
				"metallicFactor":0,
				"roughnessFactor":0.5
			}
		},
		{
			"doubleSided":true,
			"extensions":{
				"KHR_materials_specular":{
					"specularFactor":0
				}
			},
			"name":"Body3",
			"pbrMetallicRoughness":{
				"baseColorTexture":{
					"index":5
				},
				"metallicFactor":0,
				"roughnessFactor":0.5
			}
		},
		{
			"alphaMode":"BLEND",
			"doubleSided":true,
			"extensions":{
				"KHR_materials_specular":{
					"specularFactor":0
				}
			},
			"name":"Hand2",
			"pbrMetallicRoughness":{
				"baseColorTexture":{
					"index":6
				},
				"metallicFactor":0,
				"roughnessFactor":0.5
			}
		},
		{
			"doubleSided":true,
			"extensions":{
				"KHR_materials_specular":{
					"specularFactor":0
				}
			},
			"name":"Material.001",
			"normalTexture":{
				"index":7,
				"scale":5.899999618530273
			},
			"pbrMetallicRoughness":{
				"baseColorTexture":{
					"index":8
				},
				"metallicFactor":0,
				"roughnessFactor":0.5
			}
		},
		{
			"doubleSided":true,
			"extensions":{
				"KHR_materials_specular":{
					"specularFactor":0
				},
				"KHR_materials_ior":{
					"ior":1.4500000476837158
				}
			},
			"name":"Rebellion.001",
			"pbrMetallicRoughness":{
				"baseColorTexture":{
					"index":9
				},
				"metallicFactor":0.5,
				"roughnessFactor":0.5
			}
		}
	],
	"meshes":[
		{
			"name":"Curves.3967",
			"primitives":[
				{
					"attributes":{
						"POSITION":0,
						"NORMAL":1,
						"TEXCOORD_0":2
					},
					"indices":3,
					"material":0
				}
			]
		},
		{
			"name":"Dante_no_coat",
			"primitives":[
				{
					"attributes":{
						"POSITION":4,
						"NORMAL":5,
						"TEXCOORD_0":6,
						"TEXCOORD_1":7,
						"TEXCOORD_2":8
					},
					"indices":9,
					"material":1
				},
				{
					"attributes":{
						"POSITION":10,
						"NORMAL":11,
						"TEXCOORD_0":12,
						"TEXCOORD_1":13,
						"TEXCOORD_2":14
					},
					"indices":15,
					"material":2
				},
				{
					"attributes":{
						"POSITION":16,
						"NORMAL":17,
						"TEXCOORD_0":18,
						"TEXCOORD_1":19,
						"TEXCOORD_2":20
					},
					"indices":21,
					"material":3
				},
				{
					"attributes":{
						"POSITION":22,
						"NORMAL":23,
						"TEXCOORD_0":24,
						"TEXCOORD_1":25,
						"TEXCOORD_2":26
					},
					"indices":27,
					"material":4
				},
				{
					"attributes":{
						"POSITION":28,
						"NORMAL":29,
						"TEXCOORD_0":30,
						"TEXCOORD_1":31,
						"TEXCOORD_2":32
					},
					"indices":33,
					"material":5
				},
				{
					"attributes":{
						"POSITION":34,
						"NORMAL":35,
						"TEXCOORD_0":36,
						"TEXCOORD_1":37,
						"TEXCOORD_2":38
					},
					"indices":39,
					"material":6
				}
			]
		},
		{
			"extras":{
				"targetNames":[
					"Key 1"
				]
			},
			"name":"model2.003",
			"primitives":[
				{
					"attributes":{
						"POSITION":40,
						"NORMAL":41,
						"TEXCOORD_0":42
					},
					"indices":43,
					"material":7,
					"targets":[
						{
							"POSITION":44,
							"NORMAL":45
						}
					]
				}
			],
			"weights":[
				0
			]
		},
		{
			"name":"Dante_no_coat.001",
			"primitives":[
				{
					"attributes":{
						"POSITION":46,
						"NORMAL":47,
						"TEXCOORD_0":48,
						"TEXCOORD_1":49,
						"TEXCOORD_2":50
					},
					"indices":51,
					"material":8
				}
			]
		}
	],
	"textures":[
		{
			"sampler":0,
			"source":0
		},
		{
			"sampler":0,
			"source":1
		},
		{
			"sampler":0,
			"source":2
		},
		{
			"sampler":0,
			"source":3
		},
		{
			"sampler":0,
			"source":4
		},
		{
			"sampler":0,
			"source":5
		},
		{
			"sampler":0,
			"source":3
		},
		{
			"sampler":0,
			"source":6
		},
		{
			"sampler":0,
			"source":7
		},
		{
			"sampler":0,
			"source":8
		}
	],
	"images":[
		{
			"mimeType":"image/png",
			"name":"Convert fur to mesh",
			"uri":"textures/Convert%20fur%20to%20mesh.png"
		},
		{
			"mimeType":"image/png",
			"name":"Head_dds",
			"uri":"textures/Head_dds.png"
		},
		{
			"mimeType":"image/png",
			"name":"Hair_dds-Hair_dds",
			"uri":"textures/Hair_dds-Hair_dds.png"
		},
		{
			"mimeType":"image/png",
			"name":"Hands-Hands_dds-Hands_dds",
			"uri":"textures/Hands-Hands_dds-Hands_dds.png"
		},
		{
			"mimeType":"image/png",
			"name":"Body_1-Body_1_dds",
			"uri":"textures/Body_1-Body_1_dds.png"
		},
		{
			"mimeType":"image/png",
			"name":"Pants",
			"uri":"textures/Pants.png"
		},
		{
			"mimeType":"image/png",
			"name":"ATV2 Normal LR",
			"uri":"textures/ATV2%20Normal%20LR.png"
		},
		{
			"mimeType":"image/jpeg",
			"name":"ATV2 Diffuse",
			"uri":"textures/ATV2%20Diffuse.jpg"
		},
		{
			"mimeType":"image/png",
			"name":"Sword_dds",
			"uri":"textures/Sword_dds.png"
		}
	],
	"accessors":[
		{
			"bufferView":0,
			"componentType":5126,
			"count":793554,
			"max":[
				162.1046600341797,
				21.605680465698242,
				-159.97621154785156
			],
			"min":[
				122.17572784423828,
				-1.750030755996704,
				-197.89523315429688
			],
			"type":"VEC3"
		},
		{
			"bufferView":1,
			"componentType":5126,
			"count":793554,
			"type":"VEC3"
		},
		{
			"bufferView":2,
			"componentType":5126,
			"count":793554,
			"type":"VEC2"
		},
		{
			"bufferView":3,
			"componentType":5125,
			"count":1194048,
			"type":"SCALAR"
		},
		{
			"bufferView":4,
			"componentType":5126,
			"count":962,
			"max":[
				149.91734313964844,
				14.352951049804688,
				-164.22189331054688
			],
			"min":[
				135.4891357421875,
				-3.3004579544067383,
				-185.8145751953125
			],
			"type":"VEC3"
		},
		{
			"bufferView":5,
			"componentType":5126,
			"count":962,
			"type":"VEC3"
		},
		{
			"bufferView":6,
			"componentType":5126,
			"count":962,
			"type":"VEC2"
		},
		{
			"bufferView":7,
			"componentType":5126,
			"count":962,
			"type":"VEC2"
		},
		{
			"bufferView":8,
			"componentType":5126,
			"count":962,
			"type":"VEC2"
		},
		{
			"bufferView":9,
			"componentType":5123,
			"count":4827,
			"type":"SCALAR"
		},
		{
			"bufferView":10,
			"componentType":5126,
			"count":477,
			"max":[
				153.5372314453125,
				17.785385131835938,
				-166.16888427734375
			],
			"min":[
				128.85069274902344,
				-13.819588661193848,
				-187.58724975585938
			],
			"type":"VEC3"
		},
		{
			"bufferView":11,
			"componentType":5126,
			"count":477,
			"type":"VEC3"
		},
		{
			"bufferView":12,
			"componentType":5126,
			"count":477,
			"type":"VEC2"
		},
		{
			"bufferView":13,
			"componentType":5126,
			"count":477,
			"type":"VEC2"
		},
		{
			"bufferView":14,
			"componentType":5126,
			"count":477,
			"type":"VEC2"
		},
		{
			"bufferView":15,
			"componentType":5123,
			"count":1755,
			"type":"SCALAR"
		},
		{
			"bufferView":16,
			"componentType":5126,
			"count":804,
			"max":[
				180.58494567871094,
				9.626348495483398,
				-87.1820068359375
			],
			"min":[
				164.36032104492188,
				-8.510133743286133,
				-116.34735107421875
			],
			"type":"VEC3"
		},
		{
			"bufferView":17,
			"componentType":5126,
			"count":804,
			"type":"VEC3"
		},
		{
			"bufferView":18,
			"componentType":5126,
			"count":804,
			"type":"VEC2"
		},
		{
			"bufferView":19,
			"componentType":5126,
			"count":804,
			"type":"VEC2"
		},
		{
			"bufferView":20,
			"componentType":5126,
			"count":804,
			"type":"VEC2"
		},
		{
			"bufferView":21,
			"componentType":5123,
			"count":2382,
			"type":"SCALAR"
		},
		{
			"bufferView":22,
			"componentType":5126,
			"count":325,
			"max":[
				167.8033905029297,
				18.588329315185547,
				0.22960931062698364
			],
			"min":[
				115.5029067993164,
				-16.78738021850586,
				-178.17831420898438
			],
			"type":"VEC3"
		},
		{
			"bufferView":23,
			"componentType":5126,
			"count":325,
			"type":"VEC3"
		},
		{
			"bufferView":24,
			"componentType":5126,
			"count":325,
			"type":"VEC2"
		},
		{
			"bufferView":25,
			"componentType":5126,
			"count":325,
			"type":"VEC2"
		},
		{
			"bufferView":26,
			"componentType":5126,
			"count":325,
			"type":"VEC2"
		},
		{
			"bufferView":27,
			"componentType":5123,
			"count":891,
			"type":"SCALAR"
		},
		{
			"bufferView":28,
			"componentType":5126,
			"count":230,
			"max":[
				168.72216796875,
				11.189679145812988,
				-0.011940362863242626
			],
			"min":[
				117.53601837158203,
				-17.76120376586914,
				-117.38871765136719
			],
			"type":"VEC3"
		},
		{
			"bufferView":29,
			"componentType":5126,
			"count":230,
			"type":"VEC3"
		},
		{
			"bufferView":30,
			"componentType":5126,
			"count":230,
			"type":"VEC2"
		},
		{
			"bufferView":31,
			"componentType":5126,
			"count":230,
			"type":"VEC2"
		},
		{
			"bufferView":32,
			"componentType":5126,
			"count":230,
			"type":"VEC2"
		},
		{
			"bufferView":33,
			"componentType":5123,
			"count":966,
			"type":"SCALAR"
		},
		{
			"bufferView":34,
			"componentType":5126,
			"count":808,
			"max":[
				121.60101318359375,
				-3.9021313190460205,
				-86.53313446044922
			],
			"min":[
				108.83760070800781,
				-20.772384643554688,
				-116.9361572265625
			],
			"type":"VEC3"
		},
		{
			"bufferView":35,
			"componentType":5126,
			"count":808,
			"type":"VEC3"
		},
		{
			"bufferView":36,
			"componentType":5126,
			"count":808,
			"type":"VEC2"
		},
		{
			"bufferView":37,
			"componentType":5126,
			"count":808,
			"type":"VEC2"
		},
		{
			"bufferView":38,
			"componentType":5126,
			"count":808,
			"type":"VEC2"
		},
		{
			"bufferView":39,
			"componentType":5123,
			"count":2382,
			"type":"SCALAR"
		},
		{
			"bufferView":40,
			"componentType":5126,
			"count":39575,
			"max":[
				176.2244873046875,
				16.574445724487305,
				-104.39859008789062
			],
			"min":[
				109.88397216796875,
				-16.46990203857422,
				-190.4610137939453
			],
			"type":"VEC3"
		},
		{
			"bufferView":41,
			"componentType":5126,
			"count":39575,
			"type":"VEC3"
		},
		{
			"bufferView":42,
			"componentType":5126,
			"count":39575,
			"type":"VEC2"
		},
		{
			"bufferView":43,
			"componentType":5123,
			"count":224667,
			"type":"SCALAR"
		},
		{
			"componentType":5126,
			"count":39575,
			"max":[
				7.54400634765625,
				0.4985065460205078,
				3.4912872314453125
			],
			"min":[
				-0.59765625,
				-0.40969085693359375,
				-0.6335372924804688
			],
			"sparse":{
				"count":168,
				"indices":{
					"bufferView":44,
					"componentType":5123
				},
				"values":{
					"bufferView":45
				}
			},
			"type":"VEC3"
		},
		{
			"bufferView":46,
			"componentType":5126,
			"count":39575,
			"type":"VEC3"
		},
		{
			"bufferView":47,
			"componentType":5126,
			"count":336,
			"max":[
				133.04476928710938,
				9.666975021362305,
				327.9255676269531
			],
			"min":[
				-26.36724090576172,
				-6.365584373474121,
				279.683349609375
			],
			"type":"VEC3"
		},
		{
			"bufferView":48,
			"componentType":5126,
			"count":336,
			"type":"VEC3"
		},
		{
			"bufferView":49,
			"componentType":5126,
			"count":336,
			"type":"VEC2"
		},
		{
			"bufferView":50,
			"componentType":5126,
			"count":336,
			"type":"VEC2"
		},
		{
			"bufferView":51,
			"componentType":5126,
			"count":336,
			"type":"VEC2"
		},
		{
			"bufferView":52,
			"componentType":5123,
			"count":810,
			"type":"SCALAR"
		},
		{
			"bufferView":53,
			"componentType":5126,
			"count":2,
			"max":[
				4.333333333333333
			],
			"min":[
				3.0833333333333335
			],
			"type":"SCALAR"
		},
		{
			"bufferView":54,
			"componentType":5126,
			"count":2,
			"type":"VEC3"
		},
		{
			"bufferView":55,
			"componentType":5126,
			"count":2,
			"type":"VEC4"
		},
		{
			"bufferView":56,
			"componentType":5126,
			"count":2,
			"type":"VEC3"
		},
		{
			"bufferView":57,
			"componentType":5126,
			"count":1,
			"max":[
				4.333333333333333
			],
			"min":[
				4.333333333333333
			],
			"type":"SCALAR"
		},
		{
			"bufferView":58,
			"componentType":5126,
			"count":1,
			"type":"VEC3"
		},
		{
			"bufferView":59,
			"componentType":5126,
			"count":1,
			"type":"VEC4"
		},
		{
			"bufferView":60,
			"componentType":5126,
			"count":1,
			"type":"VEC3"
		},
		{
			"bufferView":61,
			"componentType":5126,
			"count":2,
			"type":"VEC3"
		},
		{
			"bufferView":62,
			"componentType":5126,
			"count":2,
			"type":"VEC4"
		},
		{
			"bufferView":63,
			"componentType":5126,
			"count":2,
			"type":"VEC3"
		},
		{
			"bufferView":64,
			"componentType":5126,
			"count":281,
			"max":[
				11.666666666666666
			],
			"min":[
				0
			],
			"type":"SCALAR"
		},
		{
			"bufferView":65,
			"componentType":5126,
			"count":281,
			"type":"SCALAR"
		}
	],
	"bufferViews":[
		{
			"buffer":0,
			"byteLength":9522648,
			"byteOffset":0,
			"target":34962
		},
		{
			"buffer":0,
			"byteLength":9522648,
			"byteOffset":9522648,
			"target":34962
		},
		{
			"buffer":0,
			"byteLength":6348432,
			"byteOffset":19045296,
			"target":34962
		},
		{
			"buffer":0,
			"byteLength":4776192,
			"byteOffset":25393728,
			"target":34963
		},
		{
			"buffer":0,
			"byteLength":11544,
			"byteOffset":30169920,
			"target":34962
		},
		{
			"buffer":0,
			"byteLength":11544,
			"byteOffset":30181464,
			"target":34962
		},
		{
			"buffer":0,
			"byteLength":7696,
			"byteOffset":30193008,
			"target":34962
		},
		{
			"buffer":0,
			"byteLength":7696,
			"byteOffset":30200704,
			"target":34962
		},
		{
			"buffer":0,
			"byteLength":7696,
			"byteOffset":30208400,
			"target":34962
		},
		{
			"buffer":0,
			"byteLength":9654,
			"byteOffset":30216096,
			"target":34963
		},
		{
			"buffer":0,
			"byteLength":5724,
			"byteOffset":30225752,
			"target":34962
		},
		{
			"buffer":0,
			"byteLength":5724,
			"byteOffset":30231476,
			"target":34962
		},
		{
			"buffer":0,
			"byteLength":3816,
			"byteOffset":30237200,
			"target":34962
		},
		{
			"buffer":0,
			"byteLength":3816,
			"byteOffset":30241016,
			"target":34962
		},
		{
			"buffer":0,
			"byteLength":3816,
			"byteOffset":30244832,
			"target":34962
		},
		{
			"buffer":0,
			"byteLength":3510,
			"byteOffset":30248648,
			"target":34963
		},
		{
			"buffer":0,
			"byteLength":9648,
			"byteOffset":30252160,
			"target":34962
		},
		{
			"buffer":0,
			"byteLength":9648,
			"byteOffset":30261808,
			"target":34962
		},
		{
			"buffer":0,
			"byteLength":6432,
			"byteOffset":30271456,
			"target":34962
		},
		{
			"buffer":0,
			"byteLength":6432,
			"byteOffset":30277888,
			"target":34962
		},
		{
			"buffer":0,
			"byteLength":6432,
			"byteOffset":30284320,
			"target":34962
		},
		{
			"buffer":0,
			"byteLength":4764,
			"byteOffset":30290752,
			"target":34963
		},
		{
			"buffer":0,
			"byteLength":3900,
			"byteOffset":30295516,
			"target":34962
		},
		{
			"buffer":0,
			"byteLength":3900,
			"byteOffset":30299416,
			"target":34962
		},
		{
			"buffer":0,
			"byteLength":2600,
			"byteOffset":30303316,
			"target":34962
		},
		{
			"buffer":0,
			"byteLength":2600,
			"byteOffset":30305916,
			"target":34962
		},
		{
			"buffer":0,
			"byteLength":2600,
			"byteOffset":30308516,
			"target":34962
		},
		{
			"buffer":0,
			"byteLength":1782,
			"byteOffset":30311116,
			"target":34963
		},
		{
			"buffer":0,
			"byteLength":2760,
			"byteOffset":30312900,
			"target":34962
		},
		{
			"buffer":0,
			"byteLength":2760,
			"byteOffset":30315660,
			"target":34962
		},
		{
			"buffer":0,
			"byteLength":1840,
			"byteOffset":30318420,
			"target":34962
		},
		{
			"buffer":0,
			"byteLength":1840,
			"byteOffset":30320260,
			"target":34962
		},
		{
			"buffer":0,
			"byteLength":1840,
			"byteOffset":30322100,
			"target":34962
		},
		{
			"buffer":0,
			"byteLength":1932,
			"byteOffset":30323940,
			"target":34963
		},
		{
			"buffer":0,
			"byteLength":9696,
			"byteOffset":30325872,
			"target":34962
		},
		{
			"buffer":0,
			"byteLength":9696,
			"byteOffset":30335568,
			"target":34962
		},
		{
			"buffer":0,
			"byteLength":6464,
			"byteOffset":30345264,
			"target":34962
		},
		{
			"buffer":0,
			"byteLength":6464,
			"byteOffset":30351728,
			"target":34962
		},
		{
			"buffer":0,
			"byteLength":6464,
			"byteOffset":30358192,
			"target":34962
		},
		{
			"buffer":0,
			"byteLength":4764,
			"byteOffset":30364656,
			"target":34963
		},
		{
			"buffer":0,
			"byteLength":474900,
			"byteOffset":30369420,
			"target":34962
		},
		{
			"buffer":0,
			"byteLength":474900,
			"byteOffset":30844320,
			"target":34962
		},
		{
			"buffer":0,
			"byteLength":316600,
			"byteOffset":31319220,
			"target":34962
		},
		{
			"buffer":0,
			"byteLength":449334,
			"byteOffset":31635820,
			"target":34963
		},
		{
			"buffer":0,
			"byteLength":336,
			"byteOffset":32085156
		},
		{
			"buffer":0,
			"byteLength":2016,
			"byteOffset":32085492
		},
		{
			"buffer":0,
			"byteLength":474900,
			"byteOffset":32087508,
			"target":34962
		},
		{
			"buffer":0,
			"byteLength":4032,
			"byteOffset":32562408,
			"target":34962
		},
		{
			"buffer":0,
			"byteLength":4032,
			"byteOffset":32566440,
			"target":34962
		},
		{
			"buffer":0,
			"byteLength":2688,
			"byteOffset":32570472,
			"target":34962
		},
		{
			"buffer":0,
			"byteLength":2688,
			"byteOffset":32573160,
			"target":34962
		},
		{
			"buffer":0,
			"byteLength":2688,
			"byteOffset":32575848,
			"target":34962
		},
		{
			"buffer":0,
			"byteLength":1620,
			"byteOffset":32578536,
			"target":34963
		},
		{
			"buffer":0,
			"byteLength":8,
			"byteOffset":32580156
		},
		{
			"buffer":0,
			"byteLength":24,
			"byteOffset":32580164
		},
		{
			"buffer":0,
			"byteLength":32,
			"byteOffset":32580188
		},
		{
			"buffer":0,
			"byteLength":24,
			"byteOffset":32580220
		},
		{
			"buffer":0,
			"byteLength":4,
			"byteOffset":32580244
		},
		{
			"buffer":0,
			"byteLength":12,
			"byteOffset":32580248
		},
		{
			"buffer":0,
			"byteLength":16,
			"byteOffset":32580260
		},
		{
			"buffer":0,
			"byteLength":12,
			"byteOffset":32580276
		},
		{
			"buffer":0,
			"byteLength":24,
			"byteOffset":32580288
		},
		{
			"buffer":0,
			"byteLength":32,
			"byteOffset":32580312
		},
		{
			"buffer":0,
			"byteLength":24,
			"byteOffset":32580344
		},
		{
			"buffer":0,
			"byteLength":1124,
			"byteOffset":32580368
		},
		{
			"buffer":0,
			"byteLength":1124,
			"byteOffset":32581492
		}
	],
	"samplers":[
		{
			"magFilter":9729,
			"minFilter":9987
		}
	],
	"buffers":[
		{
			"byteLength":32582616,
			"uri":"scene.bin"
		}
	]
}
