{
	"asset":{
		"generator":"Khronos glTF Blender I/O v4.3.47",
		"version":"2.0"
	},
	"extensionsUsed":[
		"KHR_materials_specular",
		"KHR_texture_transform"
	],
	"extensionsRequired":[
		"KHR_texture_transform"
	],
	"scene":0,
	"scenes":[
		{
			"name":"Scene",
			"nodes":[
				1
			]
		}
	],
	"nodes":[
		{
			"mesh":0,
			"name":"Fur.3965",
			"translation":[
				3.5910305976867676,
				6.919933319091797,
				1399.716552734375
			]
		},
		{
			"children":[
				0
			],
			"mesh":1,
			"name":"model2.002",
			"rotation":[
				0.7071068286895752,
				0,
				0,
				0.7071068286895752
			],
			"scale":[
				0.0010000000474974513,
				0.0010000000474974513,
				0.0010000000474974513
			],
			"translation":[
				0,
				0.843185305595398,
				0
			]
		}
	],
	"materials":[
		{
			"alphaMode":"BLEND",
			"doubleSided":true,
			"extensions":{
				"KHR_materials_specular":{
					"specularColorFactor":[
						2.0,
						2.0,
						2.0
					]
				}
			},
			"name":"Material",
			"pbrMetallicRoughness":{
				"baseColorFactor":[
					1,
					0.9971104860305786,
					0.9695598483085632,
					1
				],
				"baseColorTexture":{
					"index":0
				},
				"metallicFactor":0
			}
		},
		{
			"doubleSided":true,
			"name":"White Cloth 1",
			"normalTexture":{
				"extensions":{
					"KHR_texture_transform":{
						"offset":[
							0,
							-14
						],
						"scale":[
							15,
							15
						]
					}
				},
				"index":1,
				"scale":2.3499999046325684
			},
			"pbrMetallicRoughness":{
				"baseColorTexture":{
					"extensions":{
						"KHR_texture_transform":{
							"offset":[
								0,
								-14
							],
							"scale":[
								15,
								15
							]
						}
					},
					"index":2
				},
				"metallicFactor":0,
				"metallicRoughnessTexture":{
					"extensions":{
						"KHR_texture_transform":{
							"offset":[
								0,
								-14
							],
							"scale":[
								15,
								15
							]
						}
					},
					"index":3
				}
			}
		},
		{
			"doubleSided":true,
			"name":"White Cloth 2",
			"normalTexture":{
				"extensions":{
					"KHR_texture_transform":{
						"offset":[
							0,
							-14
						],
						"scale":[
							15,
							15
						]
					}
				},
				"index":4,
				"scale":2.3499999046325684
			},
			"pbrMetallicRoughness":{
				"baseColorTexture":{
					"extensions":{
						"KHR_texture_transform":{
							"offset":[
								0,
								-14
							],
							"scale":[
								15,
								15
							]
						}
					},
					"index":5
				},
				"metallicFactor":0,
				"metallicRoughnessTexture":{
					"extensions":{
						"KHR_texture_transform":{
							"offset":[
								0,
								-14
							],
							"scale":[
								15,
								15
							]
						}
					},
					"index":6
				}
			}
		},
		{
			"doubleSided":true,
			"name":"White Cloth 3",
			"normalTexture":{
				"extensions":{
					"KHR_texture_transform":{
						"offset":[
							0,
							-4
						],
						"scale":[
							5,
							5
						]
					}
				},
				"index":7,
				"scale":2.3499999046325684
			},
			"pbrMetallicRoughness":{
				"baseColorTexture":{
					"extensions":{
						"KHR_texture_transform":{
							"offset":[
								0,
								-4
							],
							"scale":[
								5,
								5
							]
						}
					},
					"index":8
				},
				"metallicFactor":0,
				"metallicRoughnessTexture":{
					"extensions":{
						"KHR_texture_transform":{
							"offset":[
								0,
								-4
							],
							"scale":[
								5,
								5
							]
						}
					},
					"index":9
				}
			}
		},
		{
			"doubleSided":true,
			"extensions":{
				"KHR_materials_specular":{
					"specularColorFactor":[
						2.0,
						2.0,
						2.0
					]
				}
			},
			"name":"Zip White",
			"pbrMetallicRoughness":{
				"baseColorFactor":[
					0.08806797862052917,
					0.051261208951473236,
					0.012962613254785538,
					1
				],
				"roughnessFactor":0.6727771759033203
			}
		}
	],
	"meshes":[
		{
			"name":"Curves.3967",
			"primitives":[
				{
					"attributes":{
						"POSITION":0,
						"NORMAL":1,
						"TEXCOORD_0":2
					},
					"indices":3,
					"material":0
				}
			]
		},
		{
			"name":"model2.002",
			"primitives":[
				{
					"attributes":{
						"POSITION":4,
						"NORMAL":5,
						"TEXCOORD_0":6
					},
					"indices":7,
					"material":1
				},
				{
					"attributes":{
						"POSITION":8,
						"NORMAL":9,
						"TEXCOORD_0":10
					},
					"indices":11,
					"material":2
				},
				{
					"attributes":{
						"POSITION":12,
						"NORMAL":13,
						"TEXCOORD_0":14
					},
					"indices":15,
					"material":3
				},
				{
					"attributes":{
						"POSITION":16,
						"NORMAL":17,
						"TEXCOORD_0":18
					},
					"indices":19,
					"material":4
				}
			]
		}
	],
	"textures":[
		{
			"sampler":0,
			"source":0
		},
		{
			"sampler":0,
			"source":1
		},
		{
			"sampler":0,
			"source":2
		},
		{
			"sampler":0,
			"source":3
		},
		{
			"sampler":0,
			"source":1
		},
		{
			"sampler":0,
			"source":2
		},
		{
			"sampler":0,
			"source":3
		},
		{
			"sampler":0,
			"source":1
		},
		{
			"sampler":0,
			"source":2
		},
		{
			"sampler":0,
			"source":3
		}
	],
	"images":[
		{
			"mimeType":"image/png",
			"name":"Convert fur to mesh",
			"uri":"texture/Convert%20fur%20to%20mesh.png"
		},
		{
			"mimeType":"image/jpeg",
			"name":"WhiteFluffyTowel_normal",
			"uri":"texture/WhiteFluffyTowel_normal.jpg"
		},
		{
			"mimeType":"image/jpeg",
			"name":"WhiteFluffyTowel_diffuse",
			"uri":"texture/WhiteFluffyTowel_diffuse.jpg"
		},
		{
			"mimeType":"image/png",
			"name":"WhiteFluffyTowel_roughness",
			"uri":"texture/WhiteFluffyTowel_roughness.png"
		}
	],
	"accessors":[
		{
			"bufferView":0,
			"componentType":5126,
			"count":796032,
			"max":[
				181.2976531982422,
				146.70571899414062,
				-1567.9364013671875
			],
			"min":[
				-188.0764923095703,
				-24.15201759338379,
				-1905.9647216796875
			],
			"type":"VEC3"
		},
		{
			"bufferView":1,
			"componentType":5126,
			"count":796032,
			"type":"VEC3"
		},
		{
			"bufferView":2,
			"componentType":5126,
			"count":796032,
			"type":"VEC2"
		},
		{
			"bufferView":3,
			"componentType":5125,
			"count":1194048,
			"type":"SCALAR"
		},
		{
			"bufferView":4,
			"componentType":5126,
			"count":26272,
			"max":[
				146.38638305664062,
				85.45365905761719,
				-140.54150390625
			],
			"min":[
				-142.78443908691406,
				-124.09551239013672,
				-482.662841796875
			],
			"type":"VEC3"
		},
		{
			"bufferView":5,
			"componentType":5126,
			"count":26272,
			"type":"VEC3"
		},
		{
			"bufferView":6,
			"componentType":5126,
			"count":26272,
			"type":"VEC2"
		},
		{
			"bufferView":7,
			"componentType":5123,
			"count":155310,
			"type":"SCALAR"
		},
		{
			"bufferView":8,
			"componentType":5126,
			"count":35042,
			"max":[
				174.49317932128906,
				152.875244140625,
				346.27862548828125
			],
			"min":[
				-167.5746307373047,
				39.87474822998047,
				-150.49609375
			],
			"type":"VEC3"
		},
		{
			"bufferView":9,
			"componentType":5126,
			"count":35042,
			"type":"VEC3"
		},
		{
			"bufferView":10,
			"componentType":5126,
			"count":35042,
			"type":"VEC2"
		},
		{
			"bufferView":11,
			"componentType":5123,
			"count":204690,
			"type":"SCALAR"
		},
		{
			"bufferView":12,
			"componentType":5126,
			"count":129564,
			"max":[
				314.9308776855469,
				152.39547729492188,
				513.7215576171875
			],
			"min":[
				-314.9308776855469,
				-152.875244140625,
				-206.852783203125
			],
			"type":"VEC3"
		},
		{
			"bufferView":13,
			"componentType":5126,
			"count":129564,
			"type":"VEC3"
		},
		{
			"bufferView":14,
			"componentType":5126,
			"count":129564,
			"type":"VEC2"
		},
		{
			"bufferView":15,
			"componentType":5125,
			"count":762438,
			"type":"SCALAR"
		},
		{
			"bufferView":16,
			"componentType":5126,
			"count":646,
			"max":[
				12.334818840026855,
				144.04672241210938,
				405.4087219238281
			],
			"min":[
				-1.9320282936096191,
				47.55030822753906,
				-219.44247436523438
			],
			"type":"VEC3"
		},
		{
			"bufferView":17,
			"componentType":5126,
			"count":646,
			"type":"VEC3"
		},
		{
			"bufferView":18,
			"componentType":5126,
			"count":646,
			"type":"VEC2"
		},
		{
			"bufferView":19,
			"componentType":5123,
			"count":2388,
			"type":"SCALAR"
		}
	],
	"bufferViews":[
		{
			"buffer":0,
			"byteLength":9552384,
			"byteOffset":0,
			"target":34962
		},
		{
			"buffer":0,
			"byteLength":9552384,
			"byteOffset":9552384,
			"target":34962
		},
		{
			"buffer":0,
			"byteLength":6368256,
			"byteOffset":19104768,
			"target":34962
		},
		{
			"buffer":0,
			"byteLength":4776192,
			"byteOffset":25473024,
			"target":34963
		},
		{
			"buffer":0,
			"byteLength":315264,
			"byteOffset":30249216,
			"target":34962
		},
		{
			"buffer":0,
			"byteLength":315264,
			"byteOffset":30564480,
			"target":34962
		},
		{
			"buffer":0,
			"byteLength":210176,
			"byteOffset":30879744,
			"target":34962
		},
		{
			"buffer":0,
			"byteLength":310620,
			"byteOffset":31089920,
			"target":34963
		},
		{
			"buffer":0,
			"byteLength":420504,
			"byteOffset":31400540,
			"target":34962
		},
		{
			"buffer":0,
			"byteLength":420504,
			"byteOffset":31821044,
			"target":34962
		},
		{
			"buffer":0,
			"byteLength":280336,
			"byteOffset":32241548,
			"target":34962
		},
		{
			"buffer":0,
			"byteLength":409380,
			"byteOffset":32521884,
			"target":34963
		},
		{
			"buffer":0,
			"byteLength":1554768,
			"byteOffset":32931264,
			"target":34962
		},
		{
			"buffer":0,
			"byteLength":1554768,
			"byteOffset":34486032,
			"target":34962
		},
		{
			"buffer":0,
			"byteLength":1036512,
			"byteOffset":36040800,
			"target":34962
		},
		{
			"buffer":0,
			"byteLength":3049752,
			"byteOffset":37077312,
			"target":34963
		},
		{
			"buffer":0,
			"byteLength":7752,
			"byteOffset":40127064,
			"target":34962
		},
		{
			"buffer":0,
			"byteLength":7752,
			"byteOffset":40134816,
			"target":34962
		},
		{
			"buffer":0,
			"byteLength":5168,
			"byteOffset":40142568,
			"target":34962
		},
		{
			"buffer":0,
			"byteLength":4776,
			"byteOffset":40147736,
			"target":34963
		}
	],
	"samplers":[
		{
			"magFilter":9729,
			"minFilter":9987
		}
	],
	"buffers":[
		{
			"byteLength":40152512,
			"uri":"ATV2%20BW%20for%20MiniApp%202.bin"
		}
	]
}
